<?xml version="1.0" encoding="windows-1252"?>
<!-- Uploaded to: SVG Repo, www.svgrepo.com, Generator: SVG Repo Mixer Tools -->
<svg height="800px" width="800px" version="1.1" id="Layer_1" xmlns="http://www.w3.org/2000/svg" xmlns:xlink="http://www.w3.org/1999/xlink" viewBox="0 0 496 496" xml:space="preserve">
<path style="fill:#C61756;" d="M413.6,345.2c-45.6,0-82.4-36.8-82.4-82.4s36.8-82.4,82.4-82.4s82.4,36.8,82.4,82.4  S459.2,345.2,413.6,345.2z M413.6,214c-27.2,0-48.8,21.6-48.8,48.8c0,27.2,21.6,48.8,48.8,48.8c27.2,0,48.8-21.6,48.8-48.8  C463.2,235.6,440.8,214,413.6,214z"/>
<path style="fill:#A5134E;" d="M496,262.8c0-4.8-0.8-9.6-1.6-14.4c-14.4-22.4-40-37.6-68.8-37.6c-45.6,0-82.4,36.8-82.4,82.4  c0,4.8,0.8,9.6,1.6,14.4c14.4,22.4,40,37.6,68.8,37.6C459.2,345.2,496,308.4,496,262.8z M364.8,262.8c0-27.2,21.6-48.8,48.8-48.8  c26.4,0,48,20.8,48.8,47.2c7.2,8.8,12,20,12,32c0,27.2-22.4,48.8-48.8,48.8s-48-20.8-48.8-47.2C369.6,286,364.8,274.8,364.8,262.8z"/>
<path style="fill:#DD1D6B;" d="M429.6,298.8c0,90.4-83.2,109.6-184.8,109.6c-102.4,0-184.8-20-184.8-109.6  c0-90.4,82.4-163.2,184.8-163.2S429.6,208.4,429.6,298.8z"/>
<path style="fill:#C61756;" d="M429.6,298.8c0,90.4-83.2,109.6-184.8,109.6c-102.4,0-184.8-20-184.8-109.6  c0-90.4,83.2-133.6,184.8-133.6C347.2,164.4,429.6,208.4,429.6,298.8z"/>
<g>
	<path style="fill:#A5134E;" d="M368,390.8l56.8-56.8c3.2-10.4,5.6-22.4,5.6-35.2c-0.8-90.4-83.2-163.2-185.6-163.2   c-36,0-69.6,8.8-97.6,24.8l-8.8,8.8l224,224C364,392.4,365.6,391.6,368,390.8z"/>
	<path style="fill:#A5134E;" d="M341.6,159.6c22.4,28.8,36,64,36,101.6c0,99.2-91.2,120.8-203.2,120.8c-28,0-54.4-1.6-78.4-4.8   c33.6,24.8,88,32,148.8,32c102.4,0,184.8-20,184.8-109.6C429.6,239.6,394.4,188.4,341.6,159.6z"/>
	<path style="fill:#A5134E;" d="M360,158c0,25.6-52,27.2-115.2,27.2s-115.2-2.4-115.2-27.2c0-25.6,52-37.6,115.2-37.6   S360,132.4,360,158z"/>
</g>
<path style="fill:#DD1D6B;" d="M244.8,120.4c-52.8,0-97.6,8.8-111.2,25.6c13.6,15.2,58.4,16,111.2,16s97.6-1.6,111.2-16  C341.6,128.4,297.6,120.4,244.8,120.4z"/>
<path style="fill:#C61756;" d="M252,127.6c-52.8,0-104,1.6-117.6,18.4c13.6,15.2,58.4,16,111.2,16s97.6-1.6,111.2-16  C341.6,128.4,304.8,127.6,252,127.6z"/>
<path style="fill:#A5134E;" d="M156,189.2c-12,25.6-39.2,32-77.6,32c-15.2,0-28.8-3.2-40.8-7.2L0,232.4  c13.6,23.2,44.8,116.8,82.4,116.8c48.8,0,80-92.8,80-128.8C162.4,210,161.6,198,156,189.2z"/>
<path style="fill:#DD1D6B;" d="M36.8,214L0,232.4C28,254,88,310,118.4,294.8c25.6-12.8,52.8-69.6,38.4-107.2  c-14.4,16.8-45.6,33.6-78.4,33.6C63.2,221.2,49.6,218.8,36.8,214z"/>
<path style="fill:#C61756;" d="M35.2,213.2L0,232.4C28,254,88,310,118.4,294.8c25.6-12.8,63.2-72,38.4-107.2  c-14.4,16.8-36,50.4-68.8,50.4C72.8,238,47.2,218,35.2,213.2z"/>
<circle style="fill:#A5134E;" cx="244.8" cy="114.8" r="28"/>
<circle style="fill:#C61756;" cx="237.6" cy="102.8" r="13.6"/>
<path style="fill:#7F1741;" d="M36.8,214c1.6,3.2-5.6,9.6-15.2,15.2c-10.4,5.6-19.2,7.2-20.8,4C-0.8,230,6.4,223.6,16,218  C25.6,212.4,35.2,210.8,36.8,214z"/>
<path style="fill:#600830;" d="M21.6,229.2c4.8-2.4,8.8-4.8,11.2-8c2.4-2.4,3.2-4.8,2.4-5.6c-1.6-3.2-11.2-1.6-20.8,4  c-4.8,2.4-8.8,4.8-11.2,8c-2.4,1.6-3.2,4-3.2,5.6C1.6,235.6,11.2,234,21.6,229.2z"/>
</svg>